<svg viewBox="0 0 512 512" version="1" xmlns="http://www.w3.org/2000/svg" desc="Created with imagetracer.js version 1.6" ><path fill="#000000" stroke="rgb(0,0,0)" stroke-width="0" opacity="1" d="M 189 85 Q 202 84 208 91 L 214 108 L 210 119 L 95 235 L 475 235 L 487 244 L 491 259 L 483 273 L 475 277 L 95 277 L 210 394 Q 214 399 213 410 L 204 423 Q 198 428 187 426 L 180 423 L 25 269 L 21 254 L 25 244 L 180 89 L 189 85 Z " /><path fill="#000000" stroke="rgb(0,0,0)" stroke-width="0" opacity="0" d="M 0 0 L 512 0 L 512 512 L 0 512 L 0 0 Z M 189 85 L 180 89 L 25 244 L 21 254 L 25 269 L 180 423 L 187 426 Q 198 428 204 423 L 213 410 Q 214 399 210 394 L 95 277 L 475 277 L 483 273 L 491 259 L 487 244 L 475 235 L 95 235 L 210 119 L 214 108 L 208 91 Q 202 84 189 85 Z " /></svg>