<?xml version="1.0" encoding="utf-8"?>
<svg xmlns="http://www.w3.org/2000/svg" width="512" height="512" viewBox="0 0 512 512">
  <path fill="#000000" fill-rule="evenodd" clip-rule="evenodd" d="M 85 10 L 80 15 L 79 15 L 79 16 L 74 21 L 74 22 L 70 27 L 68 31 L 68 33 L 66 36 L 66 39 L 65 40 L 65 43 L 64 44 L 64 467 L 65 468 L 65 471 L 66 472 L 66 475 L 68 478 L 68 480 L 74 490 L 79 495 L 79 496 L 80 496 L 85 501 L 86 501 L 91 505 L 95 507 L 97 507 L 100 509 L 103 509 L 104 510 L 107 510 L 108 511 L 403 511 L 404 510 L 407 510 L 408 509 L 411 509 L 414 507 L 416 507 L 426 501 L 433 495 L 433 494 L 437 490 L 437 489 L 441 484 L 443 480 L 443 478 L 445 475 L 445 472 L 446 471 L 446 468 L 447 467 L 447 44 L 446 43 L 446 40 L 445 39 L 445 36 L 443 33 L 443 31 L 437 21 L 431 14 L 430 14 L 426 10 L 425 10 L 420 6 L 416 4 L 414 4 L 411 2 L 408 2 L 407 1 L 404 1 L 403 0 L 108 0 L 107 1 L 104 1 L 103 2 L 100 2 L 97 4 L 95 4 Z M 100 25 L 104 23 L 109 22 L 110 21 L 401 21 L 402 22 L 404 22 L 411 25 L 414 28 L 415 28 L 422 36 L 424 40 L 425 45 L 426 46 L 426 465 L 425 466 L 423 473 L 421 475 L 419 479 L 415 483 L 414 483 L 409 487 L 402 489 L 401 490 L 110 490 L 109 489 L 102 487 L 100 485 L 96 483 L 92 479 L 92 478 L 88 473 L 86 466 L 85 465 L 85 46 L 86 45 L 86 43 L 89 36 L 92 33 L 92 32 Z M 128 369 L 128 376 L 130 380 L 135 383 L 376 383 L 380 381 L 383 376 L 383 369 L 382 367 L 379 364 L 375 363 L 374 362 L 137 362 L 136 363 L 132 364 Z M 128 284 L 128 291 L 129 293 L 133 297 L 135 297 L 136 298 L 375 298 L 376 297 L 378 297 L 383 291 L 383 284 L 382 282 L 378 278 L 376 278 L 375 277 L 136 277 L 135 278 L 133 278 Z M 128 199 L 128 206 L 129 208 L 132 211 L 136 212 L 137 213 L 374 213 L 375 212 L 379 211 L 383 206 L 383 199 L 381 195 L 376 192 L 135 192 L 131 194 Z M 128 113 L 128 120 L 130 124 L 135 127 L 270 127 L 275 123 L 276 119 L 277 118 L 275 111 L 272 108 L 268 107 L 267 106 L 137 106 L 136 107 L 132 108 Z"/>
</svg>
