<svg viewBox="0 0 512 512" version="1" xmlns="http://www.w3.org/2000/svg" desc="Created with imagetracer.js version 1.6" ><path fill="#000000" stroke="rgb(0,0,0)" stroke-width="0" opacity="1" d="M 239 0 L 288 1 Q 325 6 355 19 Q 409 43 446 84 Q 478 119 497 168 Q 515 211 512 276 Q 498 388 429 446 Q 393 478 345 497 Q 301 516 235 512 Q 124 497 67 430 Q 33 393 14 342 Q -2 300 0 240 Q 13 130 78 72 Q 134 12 239 0 Z M 256 39 L 256 132 Q 310 133 339 162 Q 371 189 380 239 Q 383 268 377 289 Q 368 318 350 339 Q 323 371 274 380 L 256 381 L 256 473 Q 351 468 403 418 Q 463 369 477 274 Q 480 230 470 200 Q 455 151 426 118 Q 393 79 345 57 Q 308 39 256 39 Z M 244 132 Q 195 139 168 167 Q 136 195 129 248 Q 130 312 165 343 Q 195 378 256 380 L 256 133 L 244 132 Z " /><path fill="#000000" stroke="rgb(0,0,0)" stroke-width="0" opacity="0" d="M 0 0 L 238 1 Q 126 13 69 81 Q 11 136 1 239 L 0 0 Z " /><path fill="#000000" stroke="rgb(0,0,0)" stroke-width="0" opacity="0" d="M 275 0 L 512 0 L 512 237 L 511 237 Q 508 186 490 151 Q 467 102 431 68 Q 374 12 275 0 Z " /><path fill="#000000" stroke="rgb(0,0,0)" stroke-width="0" opacity="0" d="M 256 39 Q 308 40 345 57 Q 393 79 426 118 Q 455 151 470 200 Q 480 230 477 274 Q 463 369 403 418 Q 352 468 256 473 L 256 381 L 242 380 Q 192 373 165 343 Q 130 312 129 248 Q 136 195 168 167 Q 197 134 256 132 L 256 39 Z M 256 132 L 256 380 Q 310 379 339 350 Q 371 323 380 274 Q 384 205 350 174 Q 321 134 256 132 Z " /><path fill="#000000" stroke="rgb(0,0,0)" stroke-width="0" opacity="0" d="M 1 273 Q 13 386 81 443 Q 135 499 234 512 L 0 512 L 1 273 Z " /><path fill="#000000" stroke="rgb(0,0,0)" stroke-width="0" opacity="0" d="M 512 276 L 512 512 L 278 512 Q 390 497 447 428 Q 500 373 512 276 Z " /></svg>